# xmcd CD database file
#
# Track frame offsets:
#	150
#	14987
#	27827
#	38917
#	51767
#	65407
#	81152
#	93255
#	106845
#	118882
#	131550
#	148100
#	161180
#	181340
#	194422
#	206882
#
# Disc length: 3032 seconds
#
# Revision: 6
# Processed by: cddbd v1.5.2PL0 Copyright (c) Steve Scherf et al.
# Submitted via: CDex 1.51
#
DISCID=ed0bd610
DTITLE=Graeme Allwright - Vol.2 - Au coeur de l'arbre 
DYEAR=1994
DGENRE=Folksong
TTITLE0=Le trimardeur  [1965]
TTITLE1=La femme du mineur  [1965]
TTITLE2=Le clochard américain  [1965]
TTITLE3=Joue joue joue  [1966]
TTITLE4=Henrik  [1966]
TTITLE5=La ligne Holworth  [1968]
TTITLE6=Garde le souvenir  [1968]
TTITLE7=Je perds ou bien je gagne  [1968]
TTITLE8=Ne laisse pas partir ta chance  [1968]
TTITLE9=Last night I had the strangest dream  [1975]
TTITLE10=De passage  [1975]
TTITLE11=P'etite fleur fanée  [1978]
TTITLE12=Condamnés  [1979]
TTITLE13=Au coeur de l'arbre  [1979]
TTITLE14=Pourquoi pas ¿  [1981]
TTITLE15=Danse moi vers la fin de l'amour  [1985]
EXTD=YEAR: 1994
EXTT0=
EXTT1=
EXTT2=
EXTT3=
EXTT4=
EXTT5=
EXTT6=
EXTT7=
EXTT8=
EXTT9=
EXTT10=
EXTT11=
EXTT12=
EXTT13=
EXTT14=
EXTT15=
PLAYORDER=
